<?xml version="1.0" encoding="UTF-8"?>
<svg id="Layer_2" xmlns="http://www.w3.org/2000/svg" version="1.1" viewBox="0 0 2261 5029.7">
  <!-- Generator: Adobe Illustrator 29.1.0, SVG Export Plug-In . SVG Version: 2.1.0 Build 142)  -->
  <defs>
    <style>
      .st0 {
        fill: none;
        stroke: #ffffef;
        stroke-miterlimit: 10;
        stroke-width: 5px;
      }
    </style>
  </defs>
  <path class="st0" d="M1310.6,0c-25.4,71-215.5,442.8-215.5,442.8,0,0-155.5,331.8-22.5,485.5,133.1,153.8,131.3-41.4,100.3-19-31.1,22.5,58.7,74.3,98.5,89.9,39.8,15.6,214.3,48.4,302.4,152.1s167.6,198.6,176.6,197.8c9-.8,17.6-10.9,23.1-1.1,0,3.5-3.2,4.6-4.2,3.8s-6-5.8,1.2-13.8c7.2-8,11.1-1.9,11.1-1.9,0,0-.3,6.5-5,5.8-4.7-.7-11.9-2.1-10.6-8.9,1.3-6.8,8.8-15.4,22.7-13.6s34,6.2,53.7,21.4c19.6,15.2,57.1,43.1,70.7,35.1s149-102.1,159.9-108.1c10.9-6,108.7-68.5,126.5-96.1,17.8-27.6,21.5-36.9,23.9-33.3s5.7,58.8-20.3,73c-11.7,3.2-18.2-1.2-4.1-9.7,14.2-8.5,45.8-28,45.8-22.3s-23.5,67.3-60.8,62.9c-4.9-2,7.3-11.7,19-15.8,11.7-4.1,28.4-9.3,28.4,1.2s-20.3,44.2-82.8,49.9c-10.5-.8-4.9-11.7,11.7-13,16.6-1.3,45.8-1.2,42.6,15.8-3.2,17-41.8,34.9-85.6,31.7-43.8-3.2-22.7-15.4-17.8-15s50.3-1.2,68.9,17c18.6,18.2-24.3,22.7-24.3,22.7,0,0-42.2,8.5-58.4.8-16.2-7.7-28.4-20.7-6.5-15.8,21.9,4.8,49.1,19.9,52.3,35.3s.8,18.6-31.3,23.1c-32.1,4.5-61.6-17-60.4-23.9,1.2-6.9,20.7-14.2,46.7,15.8,26,30,17.8,45-7.3,49.5s-75-36.9-60.4-38.2c14.6-1.3,66.1,47.5,41.8,59.2-24.3,11.7-91.3-46.2-67.7-40.6,23.5,5.6,34.9,43.4,32.5,52.7-2.4,9.3-9.3,30-63.3,7.3s-93.7-75-131.8-80.7-266.7-114.7-250.7-159.4c5.7-12.6,30.4,12.2,30.4,12.2,0,0,45.4,79.1,52.7,84.4s74.6,56.8,78.3,59.6,64.5,51.1,76.7,53.9,64.9,26.4,73.4,36.1c8.5,9.7,20.7,19.4,15.8,42.6s-12.6,47.5-36.1,30c-23.5-17.4-53.5-73-48.3-87.7,5.2-14.6,13.8,8.5,13.8,8.5,0,0,22.5,64.8,40.2,73,17.6,8.2,32.1,5.3,30.8,18.2-1.2,12.9-24.3,74.6-24.3,74.6,0,0-12.2,40.6,22.7,33.7,34.9-6.9,34.9-58.8,30.8-68.1-4-9.3-7.7-3.6-8.9-.4s-.8,45.4,5.7,58.4c6.5,13,30.4,53.5,48.3,20.3s-18.2-96.1-19.9-89.3c-1.6,6.8-.8,50.3,7.7,63.7,8.5,13.4,40.2,39,56.8,31.3,16.6-7.7,12.2-21.9,3.6-46.7s-39-61.6-40.2-56.8,15.8,49.1,28.4,61.2c12.5,12.1,64.5,41,66.1-2.4,1.6-43.4-56-73.4-58.8-67.7-2.8,5.7-2.4,28.8,31.3,39.4,33.7,10.6,58.8,17.8,46.2-21.5-15-21.1-59.2-45.4-60-37.7-.8,7.7,24.7,34.5,66.5,28,18.6-5.7,2-33.7-33.7-41.8-35.7-8.1-90.2-.7-103.8-35.7-13.6-34.9-36.3-8.1-36.3,11s134,439,8.2,562.1-220.8,283.9-254,491.4c-33.1,207.4,139.5,181.3,178.1,145.3,38.6-36,38.6-231.5-90-151.8-128.6,79.7-95.2,712.6-298.4,632.8,0,0-159.1-93.8-187.9-93.3s-25.8,14.4-17.4,26.8c2.5,3.7,8.7,9.5,16.4,15.5,18.4,14.3,45.9,30.1,56,24.2,14.4-8.5-61-33.7-66.5-20.4-5.5,13.3-12.4,21.3,16.4,47.7,28.8,26.4,78.9,8.9,80.9,6.4s-9.5-6.8-25.4.5c-15.9,7.4-49.6,26.3-34.3,46.1,15.4,19.9,64-8.9,67.5-13.9s7-19.4-9.5-14.9-34.7,32.3-37.2,45.7c-2.5,13.4,7.4,47.1,42.7,34.7,35.2-12.4,38.2-40.2,22.3-30.8-15.9,9.5-39.2,28.3-29.3,41.2s50.7,18.7,52.6,15.3-18.7-7.6-16.8,1.9,21.7,15.5,37,9.6,48.9-26.9,65.4-63c16.5-36.1,47.7-80.9,75-78.5,10.8.5,10.3,10.8,4.4,8.2-6-2.5-8.2-9-1.5-12.1,6.7-3.2,11.6.3,15.2,4.6,3.6,4.4,7.2,5.4,13.6,2.8,6.4-2.6,14.4-4.4,9.8,0s-28.3,18.8-29.4,28.1-4.4,21.1,4.1,34.5,26.6,27.6,10.3,52.8c-16.2,25.2-50.2,50.5-48.4,72.4s14.2,31.5,21.4,28.1c7.2-3.4,12.9-26.6-3.6-29.4-16.5-2.8-8.5,36.1-8.5,36.1,3.7,11.8,11.7,21.4,27.6,21.4,19.2-2.6,28.6-1,31.4-17s-7-31.2-10.1-23.7-2.1,28.6,13.4,36.5c15.5,8,47.1,17.4,51,4.2,3.8-13.2-18.3-37.7-24.2-28.2-5.9,9.5-2.8,17.7,23.2,34.7,26,17,58.9,32.5,64.1,18.3,5.2-14.2-11.9-34.5-27.6-48.2-15.7-13.6-26-18.3-22.7-12.6,3.4,5.7,48.2,42.5,53,45.9,4.9,3.4,46.6,28.6,53.6,7.2,7-21.3-43-46.9-43-46.9,0,0-36.8-15.7-24.5,1.8s78.3,35.8,78.3,35.8c0,0,70.3,6.4,53-9.8-17.2-16.2-74.2-54.9-77.8-46.1-3.6,8.8,4.9,17.2,28.6,26.6s73.6,21.7,108.4-1.5c5.6-5.2-265.4-115.9-299-115.9s-63.6,13.1-80,46.1c-16.4,33-20.2,43.7-26.2,82.6s-7.4,97.4-44,99.8c-36.6,2.3-66.9-5.7-78.9-24.5s-12.1-34.6,4.4-45c16.4-10.4,53.3-31.4,60.2-53.8,2.7-8,11.7-32.9-1.7-43-6.9-4.2-11.7-1.3-14.4,7-2.7,8.4-10.7,42.3-22.9,52-12.1,9.7-38.3,40.3-103.1,43.3,0,0-73.9,1.8-45.6,99.7,34.9,110.5,336.8,210.2,465,430.8,128.2,220.6-46.2,604.9-46.2,604.9,0,0-166.5,347.7-163.1,433.8"/>
</svg>